<svg width="144" height="200" viewBox="0 0 144 200" fill="none" xmlns="http://www.w3.org/2000/svg">
<path d="M8.7614 128.029L8.64809 106.419L50.9692 65.3163L0 0H127.798L128.026 28.8416L114.569 15.5185H31.7656L72.1951 66.6963L8.7614 128.029Z" fill="#821923"/>
<path d="M128.023 143.106L8.89603 142.937L8.87451 139.595L78.3045 74.2852L88.3021 86.8299L46.2449 127.638L114.104 127.731L128.023 115.005V143.106Z" fill="#821923"/>
<path d="M44.5512 199.802H36.4796V174.128H17.2688V199.802H9.19727V166.415H44.5512V199.802Z" fill="#821923"/>
<path d="M124.746 199.802H116.675V174.128H97.4641V199.802H89.3926V166.415H124.746V199.802Z" fill="#821923"/>
<path d="M82.7283 200H51.4775V192.287H74.6567V173.93H51.4775V166.218H82.7283V200Z" fill="#821923"/>
<path d="M109.811 182.804H100.426V191.223H109.811V182.804Z" fill="#821923"/>
<path d="M124.83 154.616H116.592V163.035H124.83V154.616Z" fill="#821923"/>
<path d="M143.299 191.773H134.487V199.645H143.299V191.773Z" fill="#821923"/>
</svg>
